<svg xmlns="http://www.w3.org/2000/svg" xmlns:xlink="http://www.w3.org/1999/xlink" viewBox="0 0 816.48 837.18"><defs><style>.cls-1{fill:#bfce75;}.cls-2{fill:#98a246;}.cls-3{fill:#587440;}.cls-4{fill:#e9e9e9;}.cls-5{fill:url(#linear-gradient);}.cls-6{fill:#fff;}.cls-7{fill:url(#linear-gradient-2);}.cls-8{fill:url(#linear-gradient-3);}.cls-9{fill:url(#linear-gradient-4);}.cls-10{fill:url(#linear-gradient-5);}.cls-11{fill:url(#linear-gradient-6);}.cls-12{fill:url(#Безымянный_градиент_8);}.cls-13{fill:url(#linear-gradient-7);}.cls-14{fill:url(#linear-gradient-8);}.cls-15{fill:#f5dd71;}.cls-16{fill:#f1cc5e;}.cls-17{fill:#f2d05f;}.cls-18{fill:#f2cf7d;}.cls-19{fill:#efefef;}.cls-20{fill:#d2b844;}.cls-21{fill:#6da0f0;}.cls-22{fill:#475ea6;}.cls-23{fill:#c7c7c7;}.cls-24{fill:#f3d689;}.cls-25{fill:#f4d78b;}.cls-26{fill:#4b4f7b;}.cls-27{fill:#26283a;}.cls-28{fill:#414d99;}.cls-29{fill:#2d2f46;}.cls-30{fill:#dba585;}.cls-31{fill:#5880bf;}.cls-32{fill:#997761;}.cls-33{fill:#c75454;}.cls-34{fill:#3d6bb5;}.cls-35{fill:#223c62;}.cls-36{fill:#1e1f2d;}.cls-37{fill:#27293d;}.cls-38{fill:#2e3048;}.cls-39{fill:#c8bcb4;}.cls-40{fill:#3e4148;}.cls-41{fill:#292a3f;}.cls-42{fill:#b74242;}.cls-43{fill:#e6d8d1;}.cls-44{fill:#2f386c;}.cls-45{fill:#686eae;}.cls-46{fill:#32344f;}.cls-47{fill:#b6b6b6;}.cls-48{fill:#414469;}.cls-49{fill:#c38855;}.cls-50{fill:#263643;}.cls-51{fill:#42617b;}.cls-52{fill:#d3d6e6;}.cls-53{fill:#242b3a;}</style><linearGradient id="linear-gradient" x1="40.6" y1="597.61" x2="122.34" y2="597.61" gradientUnits="userSpaceOnUse"><stop offset="0" stop-color="#81d3e4"/><stop offset="1" stop-color="#6076fa"/></linearGradient><linearGradient id="linear-gradient-2" x1="100.56" y1="643.23" x2="174.48" y2="643.23" xlink:href="#linear-gradient"/><linearGradient id="linear-gradient-3" x1="106.88" y1="653.97" x2="162.36" y2="653.97" xlink:href="#linear-gradient"/><linearGradient id="linear-gradient-4" x1="86.85" y1="609.33" x2="151.46" y2="609.33" xlink:href="#linear-gradient"/><linearGradient id="linear-gradient-5" x1="72.02" y1="702.01" x2="131.64" y2="702.01" gradientUnits="userSpaceOnUse"><stop offset="0" stop-color="#e59148"/><stop offset="1" stop-color="#f1cc52"/></linearGradient><linearGradient id="linear-gradient-6" x1="72.02" y1="702.01" x2="131.64" y2="702.01" gradientUnits="userSpaceOnUse"><stop offset="0" stop-color="#b37239"/><stop offset="1" stop-color="#f1cc52"/></linearGradient><linearGradient id="Безымянный_градиент_8" x1="547.79" y1="216.48" x2="782.99" y2="216.48" xlink:href="#linear-gradient"/><linearGradient id="linear-gradient-7" x1="708.65" y1="375.53" x2="816.48" y2="375.53" xlink:href="#linear-gradient"/><linearGradient id="linear-gradient-8" x1="161.26" y1="215.68" x2="648.22" y2="215.68" gradientUnits="userSpaceOnUse"><stop offset="0" stop-color="#e79d5a"/><stop offset="1" stop-color="#f2d05f"/></linearGradient></defs><title>Asset 3</title><g id="Layer_2" data-name="Layer 2"><g id="_Layer_" data-name="&lt;Layer&gt;"><path class="cls-1" d="M99.25,229.9s59.14-25.42,82,9-9.16,32.3-9.16,32.3-1.78,15.93-32-21.76C125.85,231.7,99.25,229.9,99.25,229.9Z"/><path class="cls-2" d="M88.93,131.7S141.44,115.42,176,182s65.64,71.86,65.64,71.86S122.9,275.18,88.93,131.7Z"/><path class="cls-3" d="M219.81,257.71c-4.6,22.14-55.27-20.55-60.26-58.83s4.95-66.38-5.13-90.94C154.42,107.94,242.45,148.69,219.81,257.71Z"/><path class="cls-4" d="M233.52,146.81a20.38,20.38,0,0,0-5.93.87,16.93,16.93,0,0,0-31.7,2,12.42,12.42,0,0,0-4.38-.79c-6.53,0-11.82,5-11.82,11.24h70.49C250.18,152.79,242.72,146.81,233.52,146.81Z"/><path class="cls-4" d="M129.08,191.21a15.38,15.38,0,0,0-4.52.66,12.73,12.73,0,0,0-11.84-7.67,12.59,12.59,0,0,0-12.34,9.22,9.43,9.43,0,0,0-3.34-.6,8.79,8.79,0,0,0-9,8.57h53.74C141.77,195.77,136.09,191.21,129.08,191.21Z"/><path class="cls-5" d="M47.75,489.6c7-3.37,14.06,19.07,14.06,19.07,12,15.83,28.72-5.23,27.08,18.44-2.86,41.4,47.66,13,24.35,56.25s20.58,24.44,6.1,59.3,4.29,76.43-17.51,59.35c0,0-19.19-42.09-39-55.11s11.86-28.47,5.66-46.16c-9-25.68-30.66-24.68-15-52.28S23.79,501.06,47.75,489.6Z"/><path class="cls-6" d="M108.73,686.17c-9.44-6.65-20.5-52.95-21.16-80.53-.34-14.13-4.51-20-8.2-25.2-3.52-5-6.56-9.26-4.79-19.1,3.39-18.81-5.52-26.93-5.61-27l1-1.17c.4.35,9.67,8.72,6.12,28.46-1.66,9.2,1.07,13,4.53,17.91,3.62,5.11,8.13,11.47,8.48,26.08.71,29.59,12,73.31,20.5,79.28Z"/><path class="cls-7" d="M112.27,689.6a19.85,19.85,0,0,1-4-.44c-3.64-.73-6-2.65-7.09-5.7-2.55-7.29,3.35-19.12,8.14-24.82a36.4,36.4,0,0,0,7.24-23.48c-.14-2.27-.38-4.38-.58-6.24-.61-5.37-1-9.25,1.27-11.85,2-2.28,6-3.27,13.13-3.31,12.57-.06,17.54-5.26,21.54-9.45a22.63,22.63,0,0,1,5.24-4.51h0c6.27-3.42,12.91-3.93,15.79-1.2,1.36,1.3,2.52,3.84.25,8.57a33,33,0,0,1-6.91,9.27c-2.9,3-4.82,4.91-3.82,8.81.23.92.5,1.84.77,2.77,1.94,6.63,4.14,14.15-7.21,19.24-2.4,1.09-4.6,2-6.53,2.71-7.92,3.1-12.7,5-18.1,16.37-1.05,2.21-2,4.3-2.86,6.32C124.28,682.31,121.06,689.6,112.27,689.6Zm45.64-88.43a21.73,21.73,0,0,0-4.86,4.22c-4.2,4.4-9.43,9.87-22.67,9.94-6.59,0-10.28.89-12,2.78-1.84,2.07-1.44,5.67-.88,10.64.21,1.87.45,4,.59,6.31a37.26,37.26,0,0,1-7.6,24.58c-4.74,5.65-10.11,16.88-7.87,23.3.88,2.5,2.87,4.08,5.94,4.7,10.68,2.15,13.63-4.53,18.52-15.61.89-2,1.82-4.13,2.88-6.35,5.66-12,10.94-14,18.94-17.17,1.91-.75,4.09-1.6,6.46-2.67,10.11-4.54,8.28-10.78,6.36-17.38-.28-1-.56-1.89-.79-2.82-1.22-4.75,1.18-7.2,4.21-10.3a31.14,31.14,0,0,0,6.62-8.84c1-2.15,1.87-5.06.08-6.76-2.36-2.24-8.36-1.63-14,1.43Z"/><path class="cls-8" d="M108.44,698.62l-1.56-.08c.08-1.47,2.05-36,15.92-46.14,15.23-11.09,20-23,22.31-31,2.69-9.43,16.4-12,17-12l.27,1.54c-.13,0-13.32,2.45-15.75,10.94-2.35,8.23-7.28,20.48-22.89,31.86C110.44,663.35,108.46,698.27,108.44,698.62Z"/><path class="cls-9" d="M140.17,524.48c-9.87-3.39-7.82,15.62-12,29.68s-46.36,6.14-28.65,41.35S77.14,607.29,89.12,638s1,63.6,14.07,55.24S110.5,646.2,124,641.6s15.76-10,2.35-22.46,35.13-24.91,23.15-50.15S151.56,528.38,140.17,524.48Z"/><path class="cls-6" d="M109.23,691.78c-1.24-5.26-11.83-51.55-2-57.15,8.71-4.93,8.5-24.12,7.14-42.23-1.21-16,19.39-23.53,20.26-23.84l.53,1.47c-.21.07-20.35,7.41-19.24,22.25,1.4,18.61,1.55,38.35-7.92,43.71-7.5,4.25-.6,41.46,2.7,55.43Z"/><polygon class="cls-10" points="131.64 675.3 117.56 728.71 86.1 728.71 72.02 675.3 131.64 675.3"/><path class="cls-11" d="M131.64,675.3s-31,5.82-31,53.41H86.1L72,675.3Z"/><rect class="cls-6" x="161.26" y="240.44" width="486.96" height="486.96"/><path class="cls-12" d="M763.57,191a100.67,100.67,0,0,0-10.78-26l11-16.5-15.23-15.22L733.32,118.1l-16.51,11a100.38,100.38,0,0,0-26-10.78l-3.9-19.42H643.86L640,118.3a100.52,100.52,0,0,0-26,10.78l-16.5-11-15.23,15.23L567,148.55l11,16.5a101,101,0,0,0-10.78,26L547.79,195V238l19.41,3.91a100.87,100.87,0,0,0,10.78,26l-11,16.5,15.22,15.23,15.23,15.22,16.5-11a100.87,100.87,0,0,0,26,10.78l3.91,19.41h43.06l3.9-19.41a100.73,100.73,0,0,0,26-10.78l16.51,11,15.22-15.22,15.23-15.23-11-16.5a100.52,100.52,0,0,0,10.78-26L783,238V195ZM665.39,291.93a75.45,75.45,0,1,1,75.44-75.45A75.45,75.45,0,0,1,665.39,291.93Z"/><path class="cls-13" d="M807.58,363.86A46.44,46.44,0,0,0,802.64,352l5-7.57-7-7-7-7-7.57,5a46.8,46.8,0,0,0-11.91-4.94l-1.79-8.9H752.7l-1.8,8.9A46.8,46.8,0,0,0,739,335.45l-7.57-5-7,7-7,7,5,7.57a46.8,46.8,0,0,0-4.94,11.91l-8.9,1.79V385.4l8.9,1.79a46.8,46.8,0,0,0,4.94,11.91l-5,7.57,7,7,7,7,7.57-5a46.8,46.8,0,0,0,11.91,4.94l1.8,8.9h19.74l1.79-8.9a46.8,46.8,0,0,0,11.91-4.94l7.57,5,7-7,7-7-5-7.57a46.44,46.44,0,0,0,4.94-11.91l8.9-1.79V365.65Zm-45,46.25a34.59,34.59,0,1,1,34.58-34.58A34.58,34.58,0,0,1,762.57,410.11Z"/><path class="cls-14" d="M161.26,240.52h487a49.68,49.68,0,0,0-49.68-49.68H211a49.69,49.69,0,0,0-49.69,49.68Z"/><path class="cls-15" d="M368.74,166.54a2.41,2.41,0,0,1-2.41-2.41V130.86a2.41,2.41,0,1,1,4.81,0v33.27A2.4,2.4,0,0,1,368.74,166.54Z"/><path class="cls-15" d="M385.38,149.9H352.1a2.41,2.41,0,1,1,0-4.81h33.28a2.41,2.41,0,0,1,0,4.81Z"/><path class="cls-15" d="M54.69,412.59,41.22,400.84a2.65,2.65,0,0,1,3.49-4l9.52,8.31L67.82,390a2.65,2.65,0,0,1,4,3.54Z"/><polygon class="cls-16" points="598.83 0 533.05 0 533.05 47.68 533.05 57.72 543.09 47.68 598.83 47.68 598.83 0"/><path class="cls-17" d="M720.6,518.75a8.11,8.11,0,0,1-4.86-1.46,6.14,6.14,0,0,1-2.65-4.45,36.86,36.86,0,0,0-3.06-9.28,16.38,16.38,0,1,1,19.6-1.18,35.07,35.07,0,0,0-1.36,9.2c.28,3.6-2.88,6.8-7,7.14C721,518.74,720.81,518.75,720.6,518.75Zm-1.76-43.89a15,15,0,0,0-7.92,27.68l.16.11.09.17a38.9,38.9,0,0,1,3.25,9.83v.06a4.78,4.78,0,0,0,2.09,3.49,6.89,6.89,0,0,0,4.59,1.19c3.45-.29,6.06-2.85,5.82-5.72v-.05a36.76,36.76,0,0,1,1.46-9.79l.06-.21.16-.13a15,15,0,0,0-9.77-26.63Z"/><polygon class="cls-17" points="717.08 513.47 713.35 495.89 717.33 498.62 719.4 495.86 721.6 498.07 724.8 494.83 724.29 512.82 722.95 512.78 723.36 498.19 721.6 499.98 719.54 497.9 717.63 500.45 715.36 498.89 718.39 513.19 717.08 513.47"/><rect class="cls-17" x="715.46" y="517.09" width="11.62" height="4.68" transform="translate(-40.53 61.5) rotate(-4.75)"/><rect class="cls-17" x="713.32" y="512.32" width="15.35" height="7.53" transform="translate(-40.25 61.46) rotate(-4.75)"/><polygon class="cls-18" points="789.22 84.78 806.65 84.78 801.32 73.71 783.88 73.71 789.22 84.78"/><polygon class="cls-18" points="781.06 84.78 785.21 84.78 779.88 73.71 775.72 73.71 781.06 84.78"/><polygon class="cls-18" points="720.82 71.59 791.42 71.59 789.08 66.06 718.48 66.06 720.82 71.59"/><polygon class="cls-18" points="17.59 270.88 40.31 270.88 33.36 256.46 10.63 256.46 17.59 270.88"/><polygon class="cls-18" points="6.96 270.88 12.37 270.88 5.42 256.46 0 256.46 6.96 270.88"/><rect class="cls-15" x="161.26" y="364.45" width="115.17" height="115.18"/><rect class="cls-19" x="161.26" y="240.44" width="115.17" height="115.18"/><rect class="cls-19" x="285.19" y="240.44" width="115.18" height="115.18"/><rect class="cls-19" x="409.12" y="363.91" width="115.18" height="115.18"/><rect class="cls-15" x="533.05" y="363.91" width="115.18" height="115.18"/><rect class="cls-19" x="533.05" y="240.52" width="115.18" height="115.18"/><rect class="cls-19" x="285.19" y="487.84" width="115.18" height="115.17"/><rect class="cls-15" x="285.19" y="611.77" width="115.18" height="115.17"/><rect class="cls-19" x="409.12" y="611.77" width="115.18" height="115.17"/><rect class="cls-19" x="161.26" y="488.11" width="115.17" height="115.17"/><path class="cls-15" d="M648.22,611.77s-.08,53.31-12.58,98.5L609,726.94H515.09C532.94,679.46,533,611.77,533,611.77Z"/><polygon class="cls-20" points="609.01 726.94 609.01 709.89 635.64 709.89 609.01 726.94"/><path class="cls-21" d="M524.29,487.84s-.08,53.31-12.58,98.5L485.08,603H391.16c17.85-47.48,17.95-115.17,17.95-115.17Z"/><polygon class="cls-22" points="485.08 603.01 485.08 585.95 511.71 585.95 485.08 603.01"/><path class="cls-15" d="M524.29,240.52s-.08,53.32-12.58,98.51L485.08,355.7H391.16c17.85-47.48,17.95-115.18,17.95-115.18Z"/><polygon class="cls-20" points="485.08 355.7 485.08 338.64 511.71 338.64 485.08 355.7"/><path class="cls-19" d="M276.43,611.77s-.08,53.31-12.58,98.5l-26.63,16.67H143.31c17.84-47.48,17.95-115.17,17.95-115.17Z"/><polygon class="cls-23" points="237.22 726.94 237.22 709.89 263.85 709.89 237.22 726.94"/><path class="cls-21" d="M400.36,364.45s-.08,53.31-12.58,98.51l-26.63,16.67H267.24c17.84-47.48,17.95-115.18,17.95-115.18Z"/><polygon class="cls-22" points="361.15 479.63 361.15 462.57 387.78 462.57 361.15 479.63"/><path class="cls-6" d="M338.85,443.23a2.68,2.68,0,0,1-2.68-2.68v-37a2.68,2.68,0,0,1,5.36,0v37A2.68,2.68,0,0,1,338.85,443.23Z"/><path class="cls-6" d="M357.36,424.72h-37a2.68,2.68,0,1,1,0-5.36h37a2.68,2.68,0,1,1,0,5.36Z"/><path class="cls-19" d="M648.22,487.84s-.08,53.31-12.58,98.5L609,603H515.09C532.94,555.53,533,487.84,533,487.84Z"/><polygon class="cls-23" points="609.01 603.01 609.01 585.95 635.64 585.95 609.01 603.01"/><path class="cls-6" d="M459.71,311,443,296.45a3.3,3.3,0,0,1,4.33-5l11.83,10.32L476,283a3.3,3.3,0,1,1,4.91,4.4Z"/><rect class="cls-24" x="222.14" y="97.99" width="32.29" height="2.26" transform="translate(476.56 198.25) rotate(180)"/><rect class="cls-24" x="222.14" y="102.26" width="32.29" height="9.51" transform="translate(476.56 214.03) rotate(180)"/><rect class="cls-24" x="395.22" y="53.68" width="19.05" height="1.42" transform="translate(809.49 108.77) rotate(180)"/><rect class="cls-24" x="395.22" y="55.72" width="19.05" height="3.85" transform="translate(809.49 115.29) rotate(180)"/><rect class="cls-25" x="259.73" y="85.79" width="1.42" height="26.66" transform="translate(520.87 198.25) rotate(180)"/><path class="cls-26" d="M444.2,253.93s-5.33,9-7.58,10.51c-3.06,2-1.15,4,.31,4s8.85.53,10.49-1.32,2.44-7.41,4-8.86,3.08-7.22-.74-8.62C447.26,248.43,444.2,253.93,444.2,253.93Z"/><path class="cls-27" d="M446.5,250s-6.1,10.59-7.15,12.15,2,1.56,3.86.82,6.6-8.33,7.28-9.72a5.09,5.09,0,0,0,.15-3.53Z"/><polygon class="cls-26" points="452.69 255.65 451.28 266.5 450.53 266.53 450.76 258.73 452.69 255.65"/><path class="cls-26" d="M497.05,253.93s-5.33,9-7.58,10.51c-3.06,2-1.14,4,.31,4s8.86.53,10.49-1.32,2.44-7.41,4-8.86,3.14-7.37-.74-8.62C500.09,248.57,497.05,253.93,497.05,253.93Z"/><path class="cls-27" d="M499,250s-5.78,10.56-6.83,12.12,2,1.56,3.86.82,6.61-8.33,7.29-9.72a5.06,5.06,0,0,0,.14-3.53Z"/><polygon class="cls-26" points="505.54 255.65 504.13 266.5 503.38 266.53 503.62 258.73 505.54 255.65"/><path class="cls-27" d="M450.64,249.67s13.95-29.6,15.84-48.26a9.1,9.1,0,0,1,.95-3.29,9.53,9.53,0,0,1,5-4.44l48.22-22s-10.52-8-31-7.5c0,0-27.24,11.11-33.85,16.47-.9.73-1.41,1.35-1.44,1.82,0,.7-.19,2.87-.45,6.05-1.23,15-4.67,52.35-7.49,61.4C446.5,250,446.16,251.86,450.64,249.67Z"/><path class="cls-27" d="M529.78,181.14c-1.49,13-20.1,11.55-20.1,11.55H487.13s5.92,13.18,8.21,24.3c2.43,11.8,8.15,32.68,8.15,32.68s-.37.7-4.46.31c0,0-17.7-35.29-24.48-44.16-1.45-1.91-5.63-12.27-6.35-18.45-.24-2.08-.09-3.69.68-4.34a58.27,58.27,0,0,1,5-3.4c7.07-4.45,19.33-11.31,26.17-12.85,9.16-2.06,23.63-5.91,23.63-5.91S531.28,168.11,529.78,181.14Z"/><path class="cls-28" d="M489.48,192.69h20.2s18.61,1.49,20.1-11.55-6.12-20.27-6.12-20.27-9.83,2.61-18.41,4.69a66.74,66.74,0,0,0-15.52-1.36s-33.12,3.37-35.29,18.38C454.44,182.58,469.66,174.42,489.48,192.69Z"/><path class="cls-29" d="M504.24,60s8.81-1.37,12.51,5.54S516.54,76.7,518,79.07s6.67,5.63,5.95,9.38-6.54,8-5.08,11.28,2.44,5.51,2.32,5.78-35.65,6.38-35.65,6.38,2.6-5,4.82-7,4.57-2.67,1.83-9.84-5.09-10.56-3.95-15.94S489,68.77,494.3,64A15.85,15.85,0,0,1,504.24,60Z"/><path class="cls-21" d="M520.69,152.86c-.21-1.36-2.47-6.25-3.77-11.78,11-17.85,14.92-30,11.27-35.92-4-6.5-14.13-7.91-14.13-7.91l-13.16.5s-12.16,3.73-17.91,10.13c-5.34,5.93-14.86,35.58-15.42,36.89-2.86,6.64-9.9,26.93-10.27,27s5.51.66,5.51.66,5.71-12.32,9.65-22.28c.69-1.77,2.9-6.81,5.19-11.56h0c.47-1,.94-1.93,1.4-2.85a28.8,28.8,0,0,1,2.81-4.58,32.68,32.68,0,0,0,4.26,8.36,55.58,55.58,0,0,0,1.94,8.58,12.76,12.76,0,0,1,.5,3.12c.23,3.18.2,7.74.42,10.57l-.22.26c-5.23,6.22-4.84,4.81-4.47,5.09.8.59,5.74,4.38,6.33,3.69.82-1,.45-.17,5.73-5.43,1.51.13,3.2.23,5,.29h0c8.61.29,19.27-.49,22.34-4.82C523.66,160.87,521.75,159.61,520.69,152.86Zm-3.92-27.08a4.18,4.18,0,0,1,.79-.93h0l-1.1,1.51A5.76,5.76,0,0,1,516.77,125.78Z"/><path class="cls-30" d="M514.06,85c-2.59,7.15,0,12.22,0,12.22-.5,4.38-12.79,17.2-13.91,15.78-.9-1.15.14-10.37.57-13.91.11-.85.18-1.37.18-1.37a6.89,6.89,0,0,0-.11-1.72h0a8.81,8.81,0,0,0-.64-2.08s10.37-10.1,13.38-10.73C514.31,83.06,514.6,83.55,514.06,85Z"/><path class="cls-21" d="M528.38,117.52s-10.21,20.35-7.73,35.13c1.26,7.48-10.49-26-10.49-26Z"/><path class="cls-30" d="M497.91,65.5s-9,7.55-4,22.56,15.66,4.73,16.68,3.58c1.57-1.77,3.84-10.58,3.48-14.81C513.78,72.86,513.93,56.74,497.91,65.5Z"/><path class="cls-29" d="M499,68.5c1-.42,5.22,5.8,7.27,7.21S513,81.58,513.85,86,516,75,514,69.78s-4.66-12.76-15.8-5.12S491.5,83,491.5,83,494,70.64,499,68.5Z"/><path class="cls-30" d="M508.8,76.77c.1-1.86,3.93-3.88,4.2-1.14s-1.56,6.17-2.84,6.13S508.72,78.49,508.8,76.77Z"/><path class="cls-31" d="M517.56,124.85h0c-.09.14-.52.76-1.2,1.71-3.08,4.41-11.18,15.91-14.16,19.51h0l-11.88,14.12-.52.62-.53.62-.26.32c-.22-2.83-.19-7.39-.42-10.57,3.25-1.75,13.43-8.08,28.21-25.44l.79-.93Z"/><path class="cls-31" d="M512.83,147.5l-11.51,18.19h0c-1.77-.06-3.46-.16-5-.29,0,0,13.52-13.48,14.43-14.83Z"/><path class="cls-32" d="M511.88,89.21s-.46,7.74-11.16,9.91c.11-.85.18-1.37.18-1.37a6.89,6.89,0,0,0-.11-1.72h0a10.18,10.18,0,0,0,4.89-.8h0a11.23,11.23,0,0,0,2.8-1.69A13.65,13.65,0,0,0,511.88,89.21Z"/><path class="cls-31" d="M481.86,131.16a28.8,28.8,0,0,0-2.81,4.58c-.46.92-.93,1.88-1.4,2.85a32.57,32.57,0,0,1,4.49-18.49C481,122.39,481.86,131.16,481.86,131.16Z"/><path class="cls-33" d="M462.81,172.43s-4.43.75-5.51-.66l2.79-7.19,5.78,1.1Z"/><polygon class="cls-34" points="503.72 175.71 464.87 171.51 482.42 184.71 503.72 175.71"/><polygon class="cls-35" points="482.42 184.71 503.72 178 503.72 175.71 481.7 182.24 482.42 184.71"/><path class="cls-30" d="M478,169.49s-1.74,1.48-2.17,2-2.18,2.52-2.6,3,.95.8,4.26-1.85S478,169.49,478,169.49Z"/><path class="cls-30" d="M488.75,165.46s-3,.79-5.12,1.21c-1.63.33-5.45,2.27-6.28,3.48s-2.86,8.11-3.39,8.69.54,1,1.51.21a2.34,2.34,0,0,0,3.66.23c2.19-1.86,3.27-4.64,4.44-5.49s8.21-5.39,8.21-5.39S490.5,164.12,488.75,165.46Z"/><polygon class="cls-35" points="482.42 184.71 471.09 145.77 428.02 141.57 439.82 177.41 482.42 184.71"/><path class="cls-34" d="M449.42,161.53c.84,2.22,2.54,3.64,3.79,3.17s1.59-2.66.75-4.88-2.54-3.65-3.79-3.18S448.58,159.3,449.42,161.53Z"/><path class="cls-21" d="M484.29,166.54a44.7,44.7,0,0,1,5.78,5s8.31-8.14,9.16-9l-9.18-2Z"/><path class="cls-27" d="M467.43,198.11h0a9,9,0,0,1,2.59-3.07s-2.36-6.72-1.82-10.65A76.82,76.82,0,0,0,467.43,198.11Z"/><path class="cls-30" d="M393.49,598.05a13.68,13.68,0,0,1,.08-3.12c.43-1.72-.21-4.5,1.95-5.84s8.36,4.3,8.85,5.87-1.83,4.27-6.68,6.53S393.49,598.05,393.49,598.05Z"/><path class="cls-30" d="M394.86,589.65a71.69,71.69,0,0,1,4.86-6.38c2.43-2.82,5.83-6,6.55-5.39,1.09.91-2,3.19-4.21,6.16-2,2.73-1.18,2.53-1.18,2.53s-.25,0,2.56-2.49c3-2.73,6.38-5.54,7-5.06.75.6.79.74-.14,1.91.68-.56.93-.45,1.19-.19,1.36,1.37-2.44,6.07-3.95,7.94,1.17-1.43,2.18-2.35,2.47-1,.34,1.57-5.35,8-7.16,10.46C400.85,600.89,394.86,589.65,394.86,589.65Z"/><path class="cls-36" d="M322.28,816s5.9,3.49,8.58,4.79,13.06,1.67,14.09,2.64.64,4.08-1.08,4.4-14.35,1.46-18.56.47-12.09.68-13.83.08-.62-10,0-12.11S322.28,816,322.28,816Z"/><path class="cls-37" d="M322.77,812.18l-.49,3.85s-7.9,1.47-10.29.26l.59-4Z"/><path class="cls-38" d="M354.44,680.81c-.08,2.66-.57,8.44-1.13,14.51l-.39,4.06c-.79,8.16-1.58,15.72-1.58,15.72-1,6.5-3.06,17.79-5.36,26.32h0c-.66,2.46-1.34,4.7-2,6.52a15.93,15.93,0,0,1-2,4c-4.9,6.25-16.11,61.65-16.11,61.65l-15.31-.11s3.36-37.52,6.75-47c3.77-10.62,10.34-24.93,8.71-35.18-1-6.42-2.34-26.89-2.34-26.89s-1.28-23,4.74-39.82C329.91,660.34,354.44,680.81,354.44,680.81Z"/><path class="cls-36" d="M365.31,817.47s5.86,3.56,8.52,4.89,13,1.83,14.05,2.81.61,4.09-1.12,4.39-14.37,1.29-18.57.25-12.09.53-13.83-.09-.5-10,.2-12.11S365.31,817.47,365.31,817.47Z"/><path class="cls-37" d="M365.84,813.63l-.53,3.84s-7.91,1.38-10.29.14l.64-4Z"/><path class="cls-38" d="M347.54,758.69c-.4-12.25-1.48-20.39-4.63-27.47-2.65-6-4.92-24.62-4.92-24.62s-7.17-21.88-5.72-39.7c.37-4.45,28.1,6.74,28.1,6.74a161.29,161.29,0,0,1,3.12,16.82c3.76,34.61,2.35,57.15,2.35,57.15-2.14,7.65,3.28,67.77,3.28,67.77H353.51S349.41,794,349,780.69C349,780.69,347.39,760.81,347.54,758.69Z"/><path class="cls-39" d="M347.19,600.13s7.28,11.93,9.4,18.58.42,26,.79,29.89c1.17,12.07,2.87,25.35,2.87,25.35l-24.39,15.58a240,240,0,0,1-8.19-23,106.78,106.78,0,0,1-4.09-31.85c.11-24,13.09-37.58,13.09-37.58Z"/><path class="cls-30" d="M356.16,568.15s5,5.35,3.58,6.76c-1.16,1.16,3.43,6.49,4.09,7.39s-2.05,2.38-2.49,3.18-.18,9.2-2.49,10.06-14,0-17.72-2.31-9.7-15.34-9.27-21.62S347.36,558.82,356.16,568.15Z"/><path class="cls-30" d="M351.43,593.73s-.09.71-.2,1.82c-.05.46-.1,1-.15,1.57,0,.34-.06.7-.1,1.07a2.53,2.53,0,0,1,0,.3c0,.18,0,.35,0,.52-.05.81-.11,1.65-.15,2.47a25.76,25.76,0,0,0,.1,5.31c.62,3.11-12.78-10-12.78-10a152.76,152.76,0,0,0,.59-21.62C338.11,563.72,351.43,593.73,351.43,593.73Z"/><path class="cls-40" d="M357.18,569.32s2.37-5.58-4.93-9.45c-8.59-4.56-17.69,6.89-18.9,7.56s-6.7,6.85-1.32,15.05c6.78,10.33,6.42,10,6.42,10s.68-7.63.63-9.1c-.08-2.69,7-3,7-3s-2.89-3.85.33-5.58S353.37,568.94,357.18,569.32Z"/><path class="cls-30" d="M342.35,579.39c-.51-.72-2.4-3.91-4.82-1.11s4.08,8,4.61,8S346.67,585.46,342.35,579.39Z"/><path class="cls-41" d="M361.58,679.09s-1.22-5.7-1.45-6.56l-35.66,5.93.36,4.61S350.53,681.54,361.58,679.09Z"/><path class="cls-28" d="M321.29,654s5.48,23.66-3.1,51.26c-1.05,3.37,23.75-.53,23.75-.53Z"/><path class="cls-28" d="M352.79,703s-17.61,3.87-22.56,2.12c0,0-7.2-26.19-9.71-52.77-.19-2-.36-4.11-.49-6.15h0c-1.4-21.63,4.1-43.56,16.64-49,.36.24,18,15.81,17.68,30.07,0,1,0,1.93,0,2.9,0,1.75,0,3.51,0,5.26h0c.11,5.42.45,10.83.93,16.08l.15,1.64.27,2.63c.13,1.16.26,2.31.4,3.45A117.54,117.54,0,0,1,352.79,703Z"/><path class="cls-42" d="M352.07,610.55a195.56,195.56,0,0,1,4.58,29.66c1.06,13.83,2.47,23.61,2.47,23.61l2.12,6.85.87-6.61s-.78-17.84-1.81-25.1-1.5-16.61-7.35-28.67Z"/><path class="cls-42" d="M351.7,610.56a2,2,0,0,0,1,.46c.56.09,1.37-.81-1.52-4.63Z"/><path class="cls-43" d="M338.24,595.17s8.2,7.72,13.08,9.43l.93,7.39-15.58-14.85Z"/><path class="cls-28" d="M343.75,625.07c-3.24-1.15-16.67-7.67-13.1-15.29s12.78-3.56,19.72-.46c7.25,3.24,24.38,13.2,25.74,12.27s7.28-9.4,8.35-11.29,7.53-14,8.14-14.88,10,7,10,7-16.87,30-21.4,34.72S343.75,625.07,343.75,625.07Z"/><path class="cls-36" d="M346,741.42h0c-.66,2.46-1.34,4.7-2,6.52h0l-5.34-31.86C340,719.1,346,741.42,346,741.42Z"/><path class="cls-44" d="M354.35,635.37,338.9,622.75c4.09,2.19,14.15,6.78,15.41,7.36C354.3,631.86,354.31,633.62,354.35,635.37Z"/><path class="cls-32" d="M351.24,595.63c0,.47-.11.91-.16,1.49,0,.34-.06.7-.1,1.07-5.12-.34-9.07-4.42-9.32-4.67C343.75,595.18,351.24,595.63,351.24,595.63Z"/><path class="cls-45" d="M215.48,628.87s-1.36,5.31-1.54,6.12-8.51-1.41-8.51-1.41v-6.5S214.5,628,215.48,628.87Z"/><path class="cls-46" d="M214.11,634.31a23.12,23.12,0,0,0,4.77,5.24c2.44,1.7,11.87,3.89,13.24,5.52,1,1.18,2.38,5.65-12.74,3.61-10.75-1.45-16-1.09-17-3S205.43,633,205.43,633,207.73,634.25,214.11,634.31Z"/><rect class="cls-47" x="46.13" y="651.37" width="363.6" height="3.82" transform="translate(-444.36 816.89) rotate(-84.44)"/><rect class="cls-47" x="-15.41" y="645.4" width="363.6" height="3.82" transform="translate(-493.99 750.25) rotate(-84.44)"/><rect class="cls-47" x="212.15" y="445.52" width="3.82" height="61.83" transform="translate(-280.85 643.38) rotate(-84.45)"/><rect class="cls-47" x="209.37" y="474.14" width="3.82" height="61.83" transform="translate(-311.75 666.76) rotate(-84.48)"/><rect class="cls-47" x="206.6" y="502.75" width="3.82" height="61.83" transform="translate(-342.74 689.85) rotate(-84.48)"/><rect class="cls-47" x="203.82" y="531.37" width="3.82" height="61.83" transform="translate(-373.77 712.84) rotate(-84.47)"/><rect class="cls-47" x="201.04" y="559.98" width="3.82" height="61.83" transform="translate(-404.75 735.96) rotate(-84.47)"/><rect class="cls-47" x="198.27" y="588.6" width="3.82" height="61.83" transform="translate(-435.72 759.14) rotate(-84.48)"/><rect class="cls-47" x="195.49" y="617.21" width="3.82" height="61.83" transform="translate(-466.71 782.25) rotate(-84.48)"/><rect class="cls-47" x="192.71" y="645.83" width="3.82" height="61.83" transform="translate(-497.7 805.36) rotate(-84.48)"/><rect class="cls-47" x="189.93" y="674.44" width="3.82" height="61.83" transform="translate(-528.72 828.34) rotate(-84.47)"/><rect class="cls-47" x="187.16" y="703.06" width="3.82" height="61.83" transform="translate(-559.71 851.45) rotate(-84.47)"/><rect class="cls-47" x="184.38" y="731.68" width="3.82" height="61.83" transform="matrix(0.1, -1, 1, 0.1, -590.77, 874.02)"/><rect class="cls-47" x="181.6" y="760.29" width="3.82" height="61.83" transform="translate(-621.74 897.29) rotate(-84.45)"/><rect class="cls-47" x="178.83" y="788.91" width="3.82" height="61.83" transform="translate(-652.73 920.34) rotate(-84.44)"/><path class="cls-30" d="M296.91,422a5.58,5.58,0,0,1-1.34,1.23s-1,.4-1.76.72a5.7,5.7,0,0,0-.55.27,10.38,10.38,0,0,1-2.95,1.56c-1.42.41-7.85,1.88-7.85,1.88l-1.5-3.82-1.07-3.08s5.95-7.72,7.24-8.26l.37-.13a13.53,13.53,0,0,1,2.73-.25c.22,0,2.49-.29,3,.18a2.21,2.21,0,0,1,.77,2,5.42,5.42,0,0,1,1.38,2.59,3.31,3.31,0,0,1,.89,2.79S297.35,421,296.91,422Z"/><path class="cls-48" d="M227.94,472A88.26,88.26,0,0,1,238,466.45c12.39-6.2,27.69-17.44,30.6-19.06,4.47-2.5,18.6-19.76,18.6-19.76-.73-2.6-7.43-7.82-7.43-7.82s-21.42,20.29-26.1,22.79c-4,2.14-23.91,4.31-29.39,4.88l-1.4.14C217.17,455.42,224.75,474.09,227.94,472Z"/><path class="cls-46" d="M225.76,517s6.06,22.51,7.65,30.56c1.4,7,4.2,25.68,4.6,30.12s-17.9,47.41-19.8,55.17l-16.66-2.68s17.58-44.72,13-54.65c-6.82-14.78-7.71-14.34-13.08-26.52s-17.68-12.46-21-35C180.48,514,221.28,509.85,225.76,517Z"/><path class="cls-30" d="M196.12,407.65s11.07-4.14,16.17,4.29,4.61,25.29-1,27.36-14,1-16.81-4.28-5.44-12.89-5.31-18S193.21,409.12,196.12,407.65Z"/><path class="cls-30" d="M209.46,438.78s-.44,2.9.3,4.33-13.92,1.47-13.92,1.47a96.36,96.36,0,0,0-3.45-14.34C190.13,423.67,209.46,438.78,209.46,438.78Z"/><path class="cls-49" d="M192.39,430.24s1,1.67,5.14,1,9.17-6.14,10.89-6.75,1.74-1.61,1.74-1.61l1.08,1.58,1.84.11s-1.67-4.91.85-6.92-2.62-15.91-15.87-11.28c0,0-10.17,2.81-9.8,8.59S190.11,427.36,192.39,430.24Z"/><path class="cls-30" d="M209.89,420.8c-.23-1-2.7-3.75-3.64-.78s1.43,7,2.75,6.62S210.48,423.25,209.89,420.8Z"/><path class="cls-48" d="M167.68,481.09c.13,1.45,1.78,3,2.91,3.8a4.71,4.71,0,0,0,2.53.83l.65,0h0l11.49.39s8.55-27.63-7.48-38.16C177.29,448,166.57,467.77,167.68,481.09Z"/><path class="cls-46" d="M202.37,645.72c1,1.88,6.26,1.51,17,3a50.45,50.45,0,0,0,7.06.52l.63-6.47c-3.14-1.09-6.8-2.22-8.19-3.18a23.12,23.12,0,0,1-4.77-5.24c-6.38-.06-8.68-1.31-8.68-1.31S201.4,643.85,202.37,645.72Z"/><path class="cls-48" d="M209.47,442.27s-9-2.1-14.1-.38l-.77.71s-1.55,3,4.27,3.22S213.83,446.49,209.47,442.27Z"/><path class="cls-45" d="M174.21,653.72s-1.35,5.31-1.54,6.11-8.51-1.4-8.51-1.4v-6.5S173.23,652.84,174.21,653.72Z"/><path class="cls-46" d="M180.48,514A175.39,175.39,0,0,0,176.54,539c-.83,11.59-2.34,24.31-3.55,36.43-1.34,13.52-5.16,35.36-5.36,42.59s-6.28,38.83-6.28,38.83l15.56,1.79s10.11-55.84,12.5-61.55,14.24-46.39,14.63-51S180.48,514,180.48,514Z"/><path class="cls-46" d="M172.84,659.16a22.94,22.94,0,0,0,4.77,5.23c2.44,1.7,11.87,3.9,13.25,5.53,1,1.18,2.37,5.64-12.75,3.6-10.75-1.44-16.05-1.08-17-2.95s3.07-12.72,3.07-12.72S166.46,659.1,172.84,659.16Z"/><path class="cls-48" d="M228.91,545.13c1.32-.19-3.3-39.71-2.94-42.19.23-1.65.2-14.5.1-22.5l1.44-8.11c.81-.58,1.88-1.26,3.17-2,2-1.16,4.53-2.48,7.33-3.88-.33-1.91-.56-3.42-.64-4.3a16.2,16.2,0,0,0-8.19-12.48,13.08,13.08,0,0,0-1.87-.93c-1-.44-2-.86-3-1.26-6.53-2.69-14.82-5.21-14.82-5.21H196.15s-10.14,2-16.18,4.5a10.77,10.77,0,0,0-2.18,1.2l1.81,38V486c.81,5.35,1.67,11.65,2,16.07.11,1.8-1.95,11.49-3,20.38l-3.76,21.28S177,552.55,228.91,545.13Z"/><path class="cls-6" d="M586,690.55a2.68,2.68,0,0,1-2.68-2.68v-37a2.68,2.68,0,0,1,5.36,0v37A2.68,2.68,0,0,1,586,690.55Z"/><path class="cls-6" d="M604.48,672h-37a2.68,2.68,0,1,1,0-5.35h37a2.68,2.68,0,1,1,0,5.35Z"/><path class="cls-50" d="M416.17,806.73s-2.74,8.27-2.6,10.07S424,818.67,424,818.67l3.38-4.82Z"/><path class="cls-37" d="M413,815s-2.43,2.85-2.57,4.59-3.13,9.39-2,11.26,9.88,2.16,14.26,1.46,13.91.77,14.88-1.11,1.53-4.62-1.32-5.68-9.39-3.85-10.57-6.77S413,815,413,815Z"/><path class="cls-30" d="M545.19,617.46s11.56,2.06,11.66,11.86-8.85,24-14.68,22.93S529.73,646,530,640.07s1.88-13.79,4.56-18.08S542,617.25,545.19,617.46Z"/><path class="cls-40" d="M530.35,635.53s0,2,4,3.58,11.29-.63,13.12-.26,2.38-.52,2.38-.52l.13,2,1.55,1.05s1.09-5.2,4.36-5.66,6-15.38-8.1-18.21c0,0-10.43-2.83-13.12,2.46S529.85,631.81,530.35,635.53Z"/><path class="cls-30" d="M566.74,694.19a3.51,3.51,0,0,0,1.79-.82c1.14-1.16,1.24-3.61,3.54-3.78s4.4,6.79,4,8.22-3.42,2.57-8.2,2.34S566.74,694.19,566.74,694.19Z"/><path class="cls-30" d="M571.3,689.76a71.9,71.9,0,0,1,6.73-3c3.19-1.21,7.14-2.06,7.57-1.51.95,1.22-2.78,2.07-5.87,3.48-2.85,1.29-2.36,1.08-2.36,1.08s-.21-.07,3.14-.9c3.6-.88,7.36-1.44,7.85-.76.23.32.65,1.47-.86,1.42.79-.15.66-.27.74,0,.4,1.62-4.73,3.73-6.77,4.57,1.57-.64,2.78-.94,2.36.25-.48,1.36-7.86,4-10.42,5.23C570.62,701,571.3,689.76,571.3,689.76Z"/><path class="cls-21" d="M516.53,646.3a88.19,88.19,0,0,0-12.33,0c-5.1.52-12.14,4.69-16.41,5.9s-14.56,8.12-14.28,9.07a77.1,77.1,0,0,0,11.64,21.34C491.46,690.44,516.53,646.3,516.53,646.3Z"/><path class="cls-31" d="M500.94,650.83s-7.8,5.77-10.51,11.06a42.64,42.64,0,0,0-3.63,11.58Z"/><path class="cls-37" d="M506.84,822.6a19.27,19.27,0,0,0,3.51,3c1.29.62,16.66,3.26,17.7,4.52s1,6.18-2.92,6.18-17.18-.07-19.4,0-11.63,2-12.6,0-.87-11,.85-13.21S506.84,822.6,506.84,822.6Z"/><path class="cls-51" d="M506.37,819.83l.47,2.77s-4.1,1.87-12.86.48v-2.85Z"/><path class="cls-30" d="M530,641s-7,5.94-9,5.46S527.84,659,527.84,659s8.43-8.3,10.33-8.55S530,641,530,641Z"/><path class="cls-21" d="M530.44,664.44c-2.38,1.44-2.78,1.9-2.5,8.71s3.11,12.31,3.31,14.19,4,20.5,5,21.54,13.51-1.38,16-2.17c3.78-1.16,19.75-6.58,19.75-6.58l-3.51-7.32s-20.17,4.49-20.82,2.92S545.51,680.92,545,678s.41-7.39-3-14.21C538.86,657.73,530.44,664.44,530.44,664.44Z"/><path class="cls-46" d="M506.8,715.71s4.27,4.55,5.47,6c8.18,10.12,19.33,28.69,20.72,31.94s-6.89,26.2-10.29,34.21c-1.79,4.21-13.58,33.18-13.21,33.82s-12.49,1.08-18.23-1.89c0,0,8.26-24.48,10-29.28,2.63-7.26,11.75-27.34,12-29.29s-14.74-18-19.75-21.06-17.25-13.91-18.64-15.3-9.27-5.1-8.53-12.14,6-12.62,6-12.62Z"/><path class="cls-46" d="M484.33,733.14l-1.88,5c-2.36,6.19-6.17,16.19-6.81,17.77-.92,2.32-5.56,12.33-7.79,14.28S429,816,428.91,816.41s-17.53-2.39-18.36-5.08c0,0,23.65-30.16,26.71-34s9.45-9.46,11.59-18.45,17.42-43.58,17.47-44.88c0,0,2.46-10.66,6-13.91s16.55.56,18.59,7.33S484.33,733.14,484.33,733.14Z"/><path class="cls-52" d="M520.35,646.36l2.95-1.16s7.47,1.71,11.78,7.69l-.37,1.79S523.33,652.21,520.35,646.36Z"/><path class="cls-53" d="M484.33,733.14l-1.88,5c-2.49-2.87-8.18-13.71-8.18-13.71.37.26,1.56,1.38,1.83,1.63S484.33,733.14,484.33,733.14Z"/><path class="cls-30" d="M548,638c.27-.85-.37-4.1-2.44-2.25s-2.07,6-.9,6.33S547.36,640.12,548,638Z"/><path class="cls-40" d="M540.27,619.74s-10-7.14-10.09,17.19Z"/><path class="cls-21" d="M531.74,689.9a11.28,11.28,0,0,1-1.39,1.7c-.21.19-.47.4-.76.64h0a115,115,0,0,1-12.12,8.26c-3.24,1.77-9.4,16.61-9.4,16.61s-29-2-35.71-17c0,0,4.73-10.56,9-16.82s13.77-28.79,18.78-32,9.32-5.29,19.19-5,15.35,8.11,15.35,8.11,7.51,8.07,8.25,12.34C543.6,670.42,535.45,684.74,531.74,689.9Z"/></g></g></svg>